{
    "asset" : {
        "generator" : "Khronos glTF Blender I/O v1.6.16",
        "version" : "2.0"
    },
    "scene" : 0,
    "scenes" : [
        {
            "extras" : {
                "b_settings" : 1,
                "s_aframe_version" : "1.2.0",
                "b_export" : 1,
                "export_path" : "/Users/mtk/Desktop/VeronicaLeiton_MundosImaginariosVR/",
                "s_output" : "exporting...",
                "b_cubemap" : 1,
                "b_camera_cube" : 0,
                "b_show_env_sky" : 1,
                "b_cubemap_background" : 0,
                "s_project_name" : "micro_macro_world_vr",
                "b_cast_shadows" : 0
            },
            "name" : "Scene",
            "nodes" : [
                0
            ]
        }
    ],
    "nodes" : [
        {
            "mesh" : 0,
            "name" : "rp_dennis_posed_004_100k",
            "rotation" : [
                -0.24985241889953613,
                0.6614935398101807,
                -0.6614936590194702,
                -0.24985238909721375
            ],
            "scale" : [
                0.010589541867375374,
                0.010589541867375374,
                0.010589541867375374
            ]
        }
    ],
    "materials" : [
        {
            "doubleSided" : true,
            "name" : "Default OBJ",
            "pbrMetallicRoughness" : {
                "baseColorFactor" : [
                    0.800000011920929,
                    0.800000011920929,
                    0.800000011920929,
                    1
                ],
                "metallicFactor" : 0,
                "roughnessFactor" : 0.5
            }
        }
    ],
    "meshes" : [
        {
            "name" : "rp_dennis_posed_004_100k",
            "primitives" : [
                {
                    "attributes" : {
                        "POSITION" : 0,
                        "NORMAL" : 1,
                        "TANGENT" : 2,
                        "TEXCOORD_0" : 3
                    },
                    "indices" : 4,
                    "material" : 0
                }
            ]
        }
    ],
    "accessors" : [
        {
            "bufferView" : 0,
            "componentType" : 5126,
            "count" : 52268,
            "max" : [
                21.191497802734375,
                33.59153747558594,
                94.64427947998047
            ],
            "min" : [
                -24.70090103149414,
                -30.59025764465332,
                -92.4670181274414
            ],
            "type" : "VEC3"
        },
        {
            "bufferView" : 1,
            "componentType" : 5126,
            "count" : 52268,
            "type" : "VEC3"
        },
        {
            "bufferView" : 2,
            "componentType" : 5126,
            "count" : 52268,
            "type" : "VEC4"
        },
        {
            "bufferView" : 3,
            "componentType" : 5126,
            "count" : 52268,
            "type" : "VEC2"
        },
        {
            "bufferView" : 4,
            "componentType" : 5123,
            "count" : 299994,
            "type" : "SCALAR"
        }
    ],
    "bufferViews" : [
        {
            "buffer" : 0,
            "byteLength" : 627216,
            "byteOffset" : 0
        },
        {
            "buffer" : 0,
            "byteLength" : 627216,
            "byteOffset" : 627216
        },
        {
            "buffer" : 0,
            "byteLength" : 836288,
            "byteOffset" : 1254432
        },
        {
            "buffer" : 0,
            "byteLength" : 418144,
            "byteOffset" : 2090720
        },
        {
            "buffer" : 0,
            "byteLength" : 599988,
            "byteOffset" : 2508864
        }
    ],
    "buffers" : [
        {
            "byteLength" : 3108852,
            "uri" : "data:application/octet-stream;base64,"
        }
    ]
}
